<?xml version="1.0" standalone="no"?>
<!DOCTYPE svg PUBLIC "-//W3C//DTD SVG 20010904//EN"
 "http://www.w3.org/TR/2001/REC-SVG-20010904/DTD/svg10.dtd">
<svg version="1.0" xmlns="http://www.w3.org/2000/svg"
 width="16.000000pt" height="16.000000pt" viewBox="0 0 16.000000 16.000000"
 preserveAspectRatio="xMidYMid meet">

<g transform="translate(0.000000,16.000000) scale(0.100000,-0.100000)"
fill="#78829d" stroke="none">
<path d="M26 134 c-34 -35 -34 -73 0 -108 35 -34 73 -34 108 1 34 33 34 90 1
85 -27 -5 -37 -23 -21 -42 24 -29 5 -59 -37 -60 -18 0 -18 2 2 35 l20 35 -27
14 c-15 9 -21 15 -14 16 6 0 12 9 12 20 0 11 7 20 15 20 8 0 15 -7 15 -15 0
-8 9 -15 20 -15 25 0 25 9 3 26 -29 21 -68 16 -97 -12z m10 -69 c19 -46 17
-55 -6 -26 -18 21 -28 61 -14 61 3 0 12 -16 20 -35z"/>
</g>
</svg>
