<?xml version="1.0" standalone="no"?>
<!DOCTYPE svg PUBLIC "-//W3C//DTD SVG 20010904//EN"
 "http://www.w3.org/TR/2001/REC-SVG-20010904/DTD/svg10.dtd">
<svg version="1.0" xmlns="http://www.w3.org/2000/svg"
 width="16.000000pt" height="16.000000pt" viewBox="0 0 16.000000 16.000000"
 preserveAspectRatio="xMidYMid meet">

<g transform="translate(0.000000,16.000000) scale(0.100000,-0.100000)"
fill="#78829d" stroke="none">
<path d="M7 138 c6 -7 13 -37 16 -67 4 -29 9 -56 12 -59 3 -3 17 1 32 9 20 11
27 11 30 2 7 -21 45 -16 41 4 -2 13 -16 20 -48 24 l-45 6 53 1 c34 1 52 6 52
15 0 6 3 22 6 35 6 21 4 22 -60 22 -37 0 -66 4 -66 10 0 6 -7 10 -16 10 -12 0
-14 -4 -7 -12z m131 -45 c-2 -14 -15 -19 -56 -21 -47 -3 -52 -1 -52 17 0 19 6
21 56 21 47 0 55 -3 52 -17z"/>
</g>
</svg>
