<?xml version="1.0" standalone="no"?>
<!DOCTYPE svg PUBLIC "-//W3C//DTD SVG 20010904//EN"
 "http://www.w3.org/TR/2001/REC-SVG-20010904/DTD/svg10.dtd">
<svg version="1.0" xmlns="http://www.w3.org/2000/svg"
 width="16.000000pt" height="`6.000000pt" viewBox="0 0 512.000000 512.000000"
 preserveAspectRatio="xMidYMid meet">

<g transform="translate(0.000000,512.000000) scale(0.100000,-0.100000)"
fill="#78829d" stroke="none">
<path d="M1520 4911 c-114 -37 -165 -100 -257 -310 -61 -141 -95 -200 -160
-280 -73 -89 -78 -103 -65 -191 14 -90 3 -155 -54 -312 -61 -171 -118 -279
-191 -360 -101 -112 -97 -103 -98 -252 -1 -120 -4 -139 -34 -231 -67 -202
-133 -345 -204 -441 -68 -93 -70 -99 -64 -178 5 -53 1 -90 -13 -146 -48 -186
-162 -437 -267 -588 l-67 -97 -2 -160 c-1 -125 -6 -182 -24 -260 -32 -145 -18
-259 50 -410 78 -171 256 -344 443 -430 152 -69 56 -65 1695 -65 1028 0 1496
3 1538 11 197 36 400 200 479 385 9 21 212 683 451 1469 321 1057 436 1448
440 1500 11 118 -29 234 -108 314 -36 37 -115 91 -134 91 -7 0 -13 -27 -17
-72 -4 -57 -103 -393 -442 -1508 -240 -789 -452 -1486 -471 -1548 -42 -134
-72 -175 -166 -218 l-63 -29 -1520 0 c-1615 0 -1561 -1 -1672 46 -131 56 -216
228 -150 304 14 17 39 30 67 36 25 4 674 8 1442 9 1521 0 1477 -1 1595 56 70
34 115 88 174 210 63 131 74 164 561 1769 l412 1360 1 115 c0 111 -1 118 -33
183 -38 77 -110 155 -170 186 -103 53 -63 51 -1377 51 -984 0 -1231 -3 -1277
-14 -31 -7 -61 -9 -65 -5 -13 13 -153 20 -183 10z m2362 -798 c10 -9 18 -30
18 -47 0 -43 -67 -239 -92 -272 -45 -56 -8 -54 -1040 -54 -1066 0 -998 -5
-998 69 0 30 42 174 75 254 4 10 24 29 44 42 l36 25 969 0 c888 0 971 -1 988
-17z m-278 -773 c53 -20 54 -48 8 -189 -46 -138 -70 -173 -133 -191 -55 -16
-1897 -13 -1929 3 -45 23 -46 52 -6 180 40 128 74 180 130 196 43 13 1897 14
1930 1z"/>
</g>
</svg>
